<?xml version="1.0" standalone="no"?>
<!DOCTYPE svg PUBLIC "-//W3C//DTD SVG 20010904//EN"
 "http://www.w3.org/TR/2001/REC-SVG-20010904/DTD/svg10.dtd">
<svg version="1.0" xmlns="http://www.w3.org/2000/svg"
 width="4779.000000pt" height="987.000000pt" viewBox="0 0 4779.000000 987.000000"
 preserveAspectRatio="xMidYMid meet">

<g transform="translate(0.000000,987.000000) scale(0.100000,-0.100000)"
fill="#000" stroke="none">
<path d="M19420 9239 c-248 -28 -542 -116 -765 -229 -612 -310 -1037 -904
-1189 -1660 -125 -624 -58 -1373 170 -1899 318 -732 956 -1173 1859 -1283 166
-20 711 -17 890 5 314 38 599 95 820 162 126 38 261 91 270 105 6 10 -135 901
-145 913 -3 4 -34 -4 -67 -18 -75 -30 -268 -85 -421 -119 -389 -88 -877 -108
-1212 -50 -286 49 -503 152 -681 322 -218 208 -322 435 -374 815 l-6 47 1605
0 1604 0 9 68 c15 126 8 644 -11 817 -45 409 -130 717 -277 1005 -298 580
-840 929 -1553 999 -125 13 -415 12 -526 0z m486 -953 c310 -65 557 -286 677
-608 44 -116 87 -348 87 -468 l0 -30 -1046 0 -1046 0 6 28 c3 15 10 55 16 89
41 235 146 484 269 631 186 223 405 342 691 376 65 8 275 -3 346 -18z"/>
<path d="M31840 9239 c-248 -28 -542 -116 -765 -229 -612 -310 -1037 -904
-1189 -1660 -125 -624 -58 -1373 170 -1899 318 -732 956 -1173 1859 -1283 166
-20 711 -17 890 5 314 38 599 95 820 162 126 38 261 91 270 105 6 10 -135 901
-145 913 -3 4 -34 -4 -67 -18 -75 -30 -268 -85 -421 -119 -389 -88 -877 -108
-1212 -50 -286 49 -503 152 -681 322 -218 208 -322 435 -374 815 l-6 47 1605
0 1604 0 9 68 c15 126 8 644 -11 817 -45 409 -130 717 -277 1005 -298 580
-840 929 -1553 999 -125 13 -415 12 -526 0z m486 -953 c310 -65 557 -286 677
-608 44 -116 87 -348 87 -468 l0 -30 -1046 0 -1046 0 6 28 c3 15 10 55 16 89
41 235 146 484 269 631 186 223 405 342 691 376 65 8 275 -3 346 -18z"/>
<path d="M44950 9239 c-248 -28 -542 -116 -765 -229 -612 -310 -1037 -904
-1189 -1660 -125 -624 -58 -1373 170 -1899 318 -732 956 -1173 1859 -1283 166
-20 711 -17 890 5 314 38 599 95 820 162 126 38 261 91 270 105 6 10 -135 901
-145 913 -3 4 -34 -4 -67 -18 -75 -30 -268 -85 -421 -119 -389 -88 -877 -108
-1212 -50 -286 49 -503 152 -681 322 -218 208 -322 435 -374 815 l-6 47 1605
0 1604 0 9 68 c15 126 8 644 -11 817 -45 409 -130 717 -277 1005 -298 580
-840 929 -1553 999 -125 13 -415 12 -526 0z m486 -953 c310 -65 557 -286 677
-608 44 -116 87 -348 87 -468 l0 -30 -1046 0 -1046 0 6 28 c3 15 10 55 16 89
41 235 146 484 269 631 186 223 405 342 691 376 65 8 275 -3 346 -18z"/>
<path d="M24100 9233 c-376 -25 -543 -43 -820 -89 -274 -45 -621 -118 -737
-155 l-33 -11 0 -2354 0 -2354 565 0 565 0 0 1960 c0 1560 3 1961 13 1965 33
11 417 56 566 66 375 26 604 -33 770 -199 139 -139 213 -330 268 -692 15 -104
17 -253 20 -1607 l4 -1493 569 0 570 0 0 1338 c0 1752 -8 1916 -101 2280 -16
62 -29 117 -29 122 0 16 264 138 385 178 176 58 289 76 485 75 235 0 380 -35
518 -125 227 -148 342 -477 372 -1063 5 -112 10 -772 10 -1502 l0 -1303 566 0
565 0 -4 1533 c-4 1553 -5 1594 -43 1877 -68 511 -210 848 -463 1100 -324 323
-783 471 -1411 457 -248 -6 -384 -27 -642 -101 -257 -74 -477 -168 -690 -297
-54 -33 -100 -59 -104 -59 -3 0 -31 22 -61 50 -130 119 -377 256 -575 319
-109 34 -272 65 -427 81 -91 9 -553 11 -671 3z"/>
<path d="M36490 9234 c-148 -11 -397 -38 -505 -55 -257 -42 -728 -159 -970
-242 l-70 -24 -3 -2321 -2 -2322 565 0 565 0 0 1950 0 1949 42 12 c142 38 393
75 568 85 138 7 402 -8 550 -32 113 -18 282 -56 399 -90 47 -13 86 -22 88 -20
12 11 194 939 187 946 -13 13 -213 65 -364 94 -273 54 -418 68 -715 71 -154 1
-305 1 -335 -1z"/>
<path d="M40055 9229 c-336 -34 -647 -123 -919 -262 -318 -162 -588 -402 -785
-696 -287 -428 -426 -1009 -391 -1628 17 -301 54 -522 127 -747 104 -325 248
-576 452 -788 254 -266 540 -427 922 -522 168 -42 291 -57 510 -63 223 -6 364
4 539 38 115 23 418 120 525 168 37 17 72 31 78 31 14 0 1 -330 -18 -447 -39
-241 -128 -419 -281 -562 -134 -125 -327 -205 -599 -247 -84 -13 -173 -17
-375 -17 -383 0 -632 30 -974 118 -140 35 -354 104 -438 140 -13 5 -19 1 -23
-17 -37 -157 -195 -925 -191 -933 5 -15 238 -87 436 -134 407 -98 772 -141
1196 -141 1049 0 1742 297 2099 900 129 220 229 530 269 842 33 247 36 470 36
2590 l0 2127 -37 10 c-389 102 -861 188 -1243 227 -183 18 -781 27 -915 13z
m580 -939 c159 -10 463 -54 477 -68 5 -5 7 -575 6 -1267 l-3 -1260 -109 -56
c-396 -205 -889 -245 -1239 -99 -218 90 -419 286 -516 503 -125 279 -171 720
-116 1114 67 476 300 840 652 1017 214 107 458 140 848 116z"/>
<path d="M7455 9014 c-729 -58 -1238 -192 -1760 -463 -385 -199 -693 -445
-967 -771 l-46 -55 596 0 c588 0 714 -4 1142 -41 1427 -120 3188 -503 4555
-989 627 -223 1238 -493 1718 -759 73 -40 142 -78 154 -85 21 -11 20 -5 -17
104 -240 693 -705 1376 -1265 1855 -797 681 -1764 1045 -3155 1186 -147 15
-831 28 -955 18z m-2062 -888 c105 -44 114 -176 16 -226 -99 -51 -209 6 -209
109 0 96 100 157 193 117z m660 -20 c107 -45 115 -181 14 -229 -95 -45 -207
12 -207 105 0 102 97 165 193 124z m670 -40 c78 -32 109 -115 67 -183 -67
-111 -260 -67 -260 59 0 56 23 92 72 117 50 25 76 26 121 7z m679 -66 c11 0
38 -17 59 -39 34 -34 39 -44 39 -85 0 -39 -6 -52 -34 -83 -30 -33 -39 -37 -92
-41 -50 -3 -64 0 -94 20 -19 13 -41 35 -48 48 -20 39 -9 107 23 140 27 28 87
52 113 44 8 -2 23 -4 34 -4z m779 -133 c19 -12 42 -39 52 -59 52 -106 -83
-218 -193 -161 -41 21 -80 76 -80 112 0 102 133 167 221 108z m755 -132 c14
-9 34 -30 44 -48 86 -140 -136 -262 -239 -131 -26 33 -28 104 -4 141 38 57
140 77 199 38z m719 -189 c65 -28 93 -112 59 -177 -17 -33 -82 -69 -124 -69
-42 0 -107 36 -124 69 -61 116 61 230 189 177z m768 -215 c57 -37 75 -90 51
-150 -44 -111 -220 -109 -263 3 -20 52 0 111 48 143 43 29 123 31 164 4z m723
-226 c32 -21 64 -73 64 -105 0 -101 -134 -166 -221 -107 -50 33 -73 85 -59
136 11 41 54 83 95 94 33 9 94 0 121 -18z m652 -249 c53 -28 77 -64 77 -116 0
-52 -24 -88 -77 -116 -86 -45 -201 22 -201 116 0 94 115 161 201 116z m630
-300 c75 -39 101 -115 60 -176 -13 -19 -39 -43 -58 -52 -92 -47 -203 14 -203
112 0 94 115 161 201 116z"/>
<path d="M4955 7563 c-1499 -50 -2739 -398 -3658 -1025 -105 -72 -115 -85 -45
-54 148 65 539 185 783 240 110 25 312 65 435 86 49 9 99 30 200 85 630 343
1389 559 2257 644 114 12 224 22 243 24 40 4 -96 4 -215 0z"/>
<path d="M5525 7553 c-742 -38 -1428 -178 -2020 -410 -134 -53 -550 -251 -543
-258 2 -2 64 2 138 10 830 87 1921 83 2910 -10 134 -13 146 -13 154 3 59 106
248 355 385 507 49 55 88 101 87 103 -5 5 -460 41 -651 52 -178 9 -319 10
-460 3z"/>
<path d="M6792 7352 c-51 -65 -116 -151 -145 -192 -55 -79 -198 -313 -193
-317 1 -1 109 -16 240 -33 1326 -169 2692 -473 3874 -862 101 -33 185 -58 187
-56 5 6 -65 286 -104 415 -42 134 -126 362 -139 375 -11 11 -296 98 -602 184
-745 210 -1594 395 -2353 515 -201 31 -628 89 -655 89 -10 0 -59 -53 -110
-118z"/>
<path d="M3920 6683 c-842 -35 -1467 -117 -2062 -269 -903 -230 -1499 -612
-1679 -1077 -50 -129 -62 -212 -56 -372 6 -160 29 -259 96 -415 348 -808 1633
-1717 3471 -2455 2641 -1061 6034 -1641 8545 -1459 1098 79 1953 290 2503 618
280 167 502 396 592 612 164 395 54 832 -330 1314 -109 136 -370 397 -535 534
-1903 1584 -5847 2824 -9440 2966 -221 9 -929 11 -1105 3z m820 -443 c974 -35
1905 -141 2960 -336 2762 -511 5337 -1577 6469 -2679 353 -343 537 -640 586
-940 19 -114 19 -161 0 -270 -60 -340 -339 -613 -825 -808 -398 -159 -915
-265 -1555 -316 -590 -48 -1496 -38 -2265 24 -999 82 -2140 256 -3213 491
-2789 610 -5102 1641 -5932 2644 -144 174 -258 376 -305 540 -34 116 -39 320
-11 430 118 474 652 827 1565 1035 667 152 1586 219 2526 185z"/>
<path d="M4660 5583 c-381 -14 -779 -65 -1077 -138 -580 -143 -940 -390 -1049
-720 -26 -82 -29 -102 -29 -225 1 -129 2 -140 36 -237 64 -183 175 -347 355
-527 144 -144 373 -326 544 -431 54 -33 42 -20 -66 68 -175 143 -329 329 -400
482 -95 206 -83 420 34 592 233 343 894 535 1867 545 393 4 1151 -5 1125 -12
-14 -5 -65 -20 -115 -35 -169 -51 -278 -121 -346 -220 -141 -207 -3 -473 375
-723 156 -104 446 -250 671 -340 745 -297 1797 -537 2660 -607 219 -18 670
-20 825 -5 423 42 692 157 779 332 26 52 31 73 31 135 0 123 -48 224 -165 347
l-56 58 137 -71 c145 -76 280 -158 416 -254 46 -32 155 -98 243 -148 313 -177
542 -344 722 -526 104 -105 213 -255 253 -348 58 -133 74 -280 45 -404 -87
-368 -566 -614 -1351 -696 -82 -8 -167 -17 -189 -19 -22 -2 46 -2 150 0 451
10 908 80 1225 189 241 82 467 221 576 354 64 77 127 198 151 291 23 92 21
252 -5 352 -61 229 -185 422 -421 659 -838 836 -2769 1612 -5051 2028 -1086
198 -2076 285 -2900 254z"/>
<path d="M4232 4494 c-284 -84 -443 -189 -514 -340 -28 -61 -32 -79 -32 -154
0 -148 53 -255 204 -413 323 -338 990 -678 1965 -1000 1196 -396 2777 -714
4070 -819 215 -17 923 -18 1065 0 389 48 617 124 753 251 89 84 119 149 125
266 4 78 1 101 -21 163 -24 69 -115 219 -155 255 -19 18 -20 17 -43 -20 -146
-238 -517 -380 -1129 -435 -173 -15 -693 -14 -920 1 -1448 100 -3207 532
-4255 1047 -801 393 -1164 803 -1036 1170 11 30 16 54 13 53 -4 0 -44 -11 -90
-25z"/>
<path d="M10730 6606 c0 -2 22 -55 49 -117 77 -180 141 -359 191 -532 l46
-159 184 -68 c711 -259 1459 -593 1980 -883 63 -35 117 -63 119 -61 6 5 -107
163 -204 284 -336 422 -783 807 -1310 1127 -110 67 -411 191 -808 332 -214 76
-247 86 -247 77z"/>
<path d="M12255 5993 c6 -6 48 -36 95 -68 280 -194 496 -371 729 -599 249
-245 463 -501 608 -727 46 -73 55 -81 205 -182 616 -413 1069 -841 1307 -1236
28 -46 51 -81 51 -77 0 4 -25 71 -56 149 -201 508 -519 967 -985 1422 -416
406 -940 783 -1554 1117 -143 78 -414 214 -400 201z"/>
<path d="M25581 3890 c-123 -22 -230 -41 -237 -44 -12 -5 -14 -202 -14 -1228
0 -755 4 -1264 10 -1331 30 -309 168 -467 462 -527 86 -18 288 -38 288 -29 0
2 16 94 35 204 19 110 35 203 35 206 0 3 -21 9 -47 12 -125 16 -203 60 -246
141 l-22 41 -3 1298 c-2 1223 -3 1297 -20 1296 -9 -1 -118 -18 -241 -39z"/>
<path d="M18090 3504 c-113 -18 -215 -36 -228 -39 l-23 -6 4 -1022 c4 -1036 5
-1062 43 -1217 57 -236 222 -406 449 -464 157 -40 377 -45 546 -12 42 8 127
31 188 52 96 31 111 39 110 58 0 11 -17 100 -38 196 -43 201 -27 187 -165 146
-123 -36 -258 -50 -349 -36 -183 28 -255 123 -277 361 -5 57 -9 296 -10 532
l0 427 380 0 380 0 0 210 0 210 -377 2 -378 3 -3 318 -2 317 -23 -1 c-12 -1
-114 -16 -227 -35z"/>
<path d="M20644 2949 c-429 -32 -768 -327 -879 -764 -111 -437 -1 -919 271
-1189 208 -207 505 -307 816 -276 355 35 625 215 781 518 153 298 179 717 65
1040 -95 271 -251 455 -484 571 -168 84 -355 116 -570 100z m208 -440 c178
-38 319 -188 373 -396 37 -145 39 -376 5 -526 -51 -231 -194 -392 -379 -427
-280 -53 -496 94 -583 395 -20 72 -23 101 -23 280 0 179 2 208 23 280 63 217
189 354 362 391 71 16 156 17 222 3z"/>
<path d="M23394 2949 c-227 -17 -431 -107 -593 -263 -219 -212 -324 -485 -324
-846 0 -350 99 -625 302 -833 164 -170 362 -263 614 -288 242 -24 479 32 674
161 275 181 433 495 450 896 22 517 -212 937 -613 1101 -151 61 -323 86 -510
72z m226 -445 c123 -28 231 -116 299 -244 90 -168 114 -475 55 -705 -54 -210
-198 -362 -373 -395 -233 -43 -430 54 -529 262 -60 124 -73 189 -79 378 -4
141 -2 180 16 265 69 337 308 508 611 439z"/>
<path d="M27435 2949 c-355 -29 -607 -212 -665 -484 -18 -82 -16 -237 4 -314
35 -138 119 -248 254 -335 83 -54 154 -87 346 -162 270 -106 371 -174 395
-268 21 -86 -8 -165 -76 -203 -67 -37 -138 -48 -303 -46 -179 1 -295 21 -478
82 -74 25 -115 34 -118 27 -2 -6 -22 -98 -44 -205 -31 -152 -37 -197 -28 -203
7 -4 49 -19 93 -33 219 -68 338 -85 581 -85 484 0 771 147 858 440 40 132 27
336 -28 456 -86 188 -205 267 -691 458 -193 76 -266 137 -281 233 -14 94 34
169 132 207 37 14 84 20 189 24 162 5 268 -10 415 -58 51 -17 94 -29 95 -28 2
2 23 92 48 201 l45 198 -24 9 c-78 30 -307 77 -410 85 -160 12 -211 12 -309 4z"/>
</g>
</svg>
